<?xml version="1.0" encoding="UTF-8" standalone="no"?>
<svg width="107px" height="56px" viewBox="0 0 107 56" version="1.1" xmlns="http://www.w3.org/2000/svg" xmlns:xlink="http://www.w3.org/1999/xlink">
    <!-- Generator: Sketch 39.1 (31720) - http://www.bohemiancoding.com/sketch -->
    <title>3x3 logo_white_bg</title>
    <desc>Created with Sketch.</desc>
    <defs></defs>
    <g id="Home" stroke="none" stroke-width="1" fill="none" fill-rule="evenodd">
        <g id="Home-(360)-mobile">
            <g id="Navigation">
                <g id="Main">
                    <g id="3x3-logo_white_bg">
                        <polygon id="Selected" fill="#FFFFFF" points="0 0 106.5 0 93.375 56 0 56"></polygon>
                        <path d="M38.2026681,13 L36.5514826,20.0223031 L39.324348,20.0223031 L54.1460433,43 L63.1651529,43 L64.8166818,35.9763233 L62.0443315,35.9763233 L47.221606,13 L38.2026681,13 Z M72.4321893,13.0427519 L70.8019504,19.9810964 L74.3572275,19.9810964 L73.3732466,24.026046 L68.761877,24.026046 L67.0552341,31.4171488 L71.7138197,31.4171488 L70.6522329,35.9347733 L67.0428721,35.9347733 L65.3916866,42.9570764 L75.203166,42.9570764 L80.8951805,38.6226499 L82.5997631,31.4463369 L79.569356,27.8034957 L84.1973799,24.085624 L85.7860687,17.4221623 L82.1425407,13.0427519 L72.4321893,13.0427519 Z M26.5820442,13.0427519 L20.8896863,17.3773501 L19.2565287,24.1462322 L22.2869358,27.7892451 L17.6585684,31.5060866 L16,38.5774943 L19.643528,42.956733 L29.3533644,42.956733 L30.9832598,36.0190753 L27.4276394,36.0190753 L28.4847621,31.5660079 L33.0954449,31.5660079 L34.8019161,24.1750768 L30.1423004,24.1750768 L31.133149,20.0652267 L34.2912968,20.0652267 L35.9414522,13.0427519 L26.5820442,13.0427519 Z M61.1786481,13.0856755 L53.9418986,19.5134008 L58.4509383,26.505829 L65.7491544,20.0223031 L68.5687207,20.0223031 L70.1981011,13.0856755 L61.1786481,13.0856755 Z M35.6188383,35.9763233 L33.1936542,35.9763233 L31.563587,42.9146679 L40.1893446,42.9146679 L47.3912401,36.4670261 L42.8804835,29.4749412 L35.6188383,35.9763233 Z" id="3x3-logo" fill="#000000"></path>
                    </g>
                </g>
            </g>
        </g>
    </g>
</svg>